<svg width="107" height="107" viewBox="0 0 107 107" fill="none" xmlns="http://www.w3.org/2000/svg">
<g clip-path="url(#clip0_435_426)">
<path d="M63.8549 23.8799C65.4267 23.8799 66.7461 24.3581 67.6733 25.2842C68.6005 26.2104 69.0797 27.529 69.0805 29.0996V77.877C69.0805 79.4291 68.5971 80.739 67.6733 81.6611C66.7496 82.5831 65.4377 83.0654 63.8832 83.0654H40.1166C38.5639 83.0654 37.2532 82.5811 36.3295 81.6582C35.4058 80.7353 34.9213 79.4256 34.9213 77.874V54.6553L34.9194 54.6572V29.0977C34.9195 27.529 35.3997 26.2113 36.3276 25.2852C37.2554 24.3591 38.5756 23.8799 40.1469 23.8799H63.8549ZM37.3452 77.7949C37.3452 78.8028 37.614 79.4954 38.058 79.9375C38.5025 80.3799 39.1991 80.6475 40.2133 80.6475H63.9174C64.1307 80.6475 64.3014 80.6516 64.476 80.6406L64.7026 80.6152C65.8192 80.4353 66.712 79.5192 66.7485 78.4775C66.8076 76.7641 66.7737 75.0574 66.767 73.293H37.3452V77.7949ZM39.7455 26.3037H39.7416C38.6572 26.3444 37.7353 27.0159 37.4975 27.9453L37.4584 28.1348C37.3878 28.6073 37.3796 29.0985 37.3911 29.6201C37.3988 29.9704 37.4132 30.3553 37.4233 30.7402C38.6271 30.7413 39.825 30.7466 41.0258 30.7383L41.2465 30.7451C41.4737 30.7634 41.7159 30.8198 41.9291 30.958C42.2449 31.1627 42.4123 31.4908 42.4467 31.8867L42.4516 32.0303C42.4427 32.3595 42.3003 32.6543 42.0317 32.8604C41.751 33.0755 41.3835 33.1554 41.0151 33.1592H37.3784V70.8047H66.7309V33.1592H46.7524C46.7278 33.1592 46.6946 33.1612 46.642 33.166C46.597 33.1702 46.528 33.1772 46.4633 33.1807C46.3582 33.1862 46.1073 33.1967 45.8891 33.0488L45.8871 33.0479C45.754 32.9569 45.5864 32.835 45.4399 32.6895C45.3004 32.5509 45.1325 32.3452 45.0698 32.0801V32.0781C44.9862 31.7187 45.0867 31.385 45.3149 31.1426C45.527 30.9174 45.8194 30.7994 46.101 30.7578H46.102L46.2885 30.7402C46.4771 30.7307 46.6638 30.7412 46.768 30.7412H66.7758V29.0947C66.7758 28.1322 66.5055 27.4515 66.0629 27.0107C65.6201 26.5698 64.9358 26.3008 63.9682 26.3008H40.1381C39.9851 26.3008 39.8683 26.2981 39.7455 26.3037Z" fill="#1465FF" stroke="#1465FF"/>
<path d="M52.0779 35.0234C55.6426 35.0234 59.2074 35.0234 62.7722 35.0234C63.6202 35.0234 63.825 35.2253 63.825 36.0626C63.825 42.547 63.825 49.0297 63.825 55.5141C63.825 56.3451 63.617 56.5469 62.7659 56.5469C55.6363 56.5469 48.5051 56.5469 41.3755 56.5469C40.4895 56.5469 40.2926 56.353 40.2926 55.4778C40.2926 49.014 40.2926 42.5501 40.2926 36.0863C40.2926 35.2142 40.4879 35.0234 41.3819 35.0234C44.9467 35.0234 48.5115 35.0234 52.0763 35.0234H52.0779ZM51.006 45.786C47.9001 42.968 44.8641 40.2115 41.7693 37.4046V54.1705C44.8768 51.3494 47.916 48.5913 51.006 45.786ZM62.3816 37.3809C59.2551 40.2178 56.2048 42.9854 53.1179 45.786C56.2175 48.5976 59.2614 51.3604 62.3816 54.191V37.3794V37.3809ZM42.8745 36.4695C46.0058 39.3095 49.0275 42.0502 52.0652 44.8067C55.1377 42.0171 58.1515 39.2811 61.2463 36.4695H42.8745ZM52.062 46.7637C48.9831 49.5596 45.9709 52.294 42.884 55.0978H61.2447C58.1404 52.2798 55.1234 49.5422 52.062 46.7637Z" fill="#161616"/>
<path d="M52 64.3547C48.5336 64.3547 45.0673 64.3547 41.601 64.3547C41.4041 64.3547 41.15 64.4146 41.0214 64.3169C40.7927 64.145 40.4974 63.8753 40.4974 63.6451C40.4974 63.4164 40.7943 63.1452 41.0214 62.9733C41.1516 62.8756 41.4041 62.9371 41.6025 62.9371C48.5749 62.9371 55.5473 62.9371 62.5197 62.9371C62.6785 62.9371 62.8389 62.926 62.9945 62.9449C63.4073 62.9938 63.655 63.2398 63.655 63.6467C63.655 64.0519 63.4057 64.2995 62.9945 64.3484C62.8182 64.3689 62.6388 64.3563 62.4594 64.3563C58.9724 64.3563 55.487 64.3563 52 64.3563V64.3547Z" fill="#1465FF"/>
<path d="M52.0222 67.9027C48.5559 67.9027 45.0895 67.9027 41.6232 67.9027C41.4247 67.9027 41.1754 67.9658 41.042 67.8712C40.8086 67.7056 40.4831 67.4281 40.499 67.2199C40.5164 66.9676 40.8229 66.7059 41.0579 66.5135C41.1659 66.4252 41.4025 66.4867 41.5803 66.4867C48.5733 66.4867 55.5648 66.4867 62.5578 66.4867C62.7166 66.4867 62.923 66.4299 63.0231 66.5072C63.2644 66.6948 63.5788 66.9203 63.636 67.1789C63.7201 67.5605 63.428 67.8349 63.0167 67.8933C62.842 67.9185 62.661 67.9043 62.4832 67.9043C58.9962 67.9043 55.5108 67.9043 52.0238 67.9043L52.0222 67.9027Z" fill="#1465FF"/>
<path d="M46.5917 60.6884C44.8705 60.6884 43.1508 60.69 41.4295 60.6884C40.8023 60.6884 40.4609 60.4377 40.4561 59.9883C40.4498 59.5357 40.7928 59.2723 41.412 59.2723C44.8736 59.2692 48.3352 59.2708 51.7968 59.2723C52.4446 59.2723 52.7606 59.5073 52.767 59.9709C52.7733 60.4282 52.4383 60.6868 51.8143 60.6884C50.0739 60.6916 48.3336 60.6884 46.5917 60.6884Z" fill="#1465FF"/>
<path d="M52.062 79.2315C50.6138 79.2441 49.3626 78.0094 49.3578 76.5634C49.3546 75.1016 50.5487 73.8905 52.0238 73.8589C53.499 73.829 54.7629 75.0747 54.755 76.5539C54.7486 78.011 53.5323 79.2189 52.0604 79.2299L52.062 79.2315ZM53.3323 76.5523C53.3386 75.8837 52.7717 75.3018 52.0969 75.2813C51.4014 75.2608 50.7948 75.8427 50.7885 76.5381C50.7821 77.202 51.3506 77.7886 52.0238 77.8123C52.7082 77.8359 53.3275 77.2414 53.3338 76.5523H53.3323Z" fill="#161616"/>
</g>
<defs>
<clipPath id="clip0_435_426">
<rect width="58" height="58" fill="white" transform="translate(24.5 24.5654)"/>
</clipPath>
</defs>
</svg>
