<svg width="47" height="47" viewBox="0 0 47 47" fill="none" xmlns="http://www.w3.org/2000/svg">
<rect width="47" height="47" rx="23.5" fill="white"/>
<path d="M21.8752 24.2883C21.5104 23.8306 21.0926 23.4804 20.6248 23.2435C21.0382 22.9919 21.3942 22.6829 21.6884 22.315C22.1841 21.6941 22.4357 20.9156 22.4357 20.0004C22.4357 19.2367 22.2342 18.5348 21.8355 17.9153C21.4383 17.2958 20.847 16.7985 20.0776 16.4365C19.3244 16.0819 18.4168 15.9023 17.3827 15.9023H11.5V31.0982H17.6533C18.661 31.0982 19.5613 30.9143 20.3277 30.5523C21.1088 30.1844 21.7178 29.6694 22.1356 29.0235C22.5548 28.3745 22.7681 27.6373 22.7681 26.8324C22.7681 25.8892 22.4681 25.0343 21.8752 24.2897V24.2883ZM18.7507 21.519C18.3874 21.8132 17.8564 21.9633 17.1753 21.9633H14.6304V18.5966H17.1753C17.8534 18.5966 18.3815 18.7511 18.7449 19.0572C19.0935 19.35 19.2627 19.7547 19.2627 20.2903C19.2627 20.8259 19.095 21.2408 18.7507 21.519ZM14.6304 24.6591H17.3621C18.077 24.6591 18.6272 24.8327 19.0435 25.1903C19.4421 25.5331 19.6363 25.9878 19.6363 26.5823C19.6363 27.1768 19.4568 27.5961 19.0861 27.9095C18.7022 28.2347 18.1506 28.3995 17.4445 28.3995H14.6304V24.6591Z" fill="#272727"/>
<path d="M34.7866 21.7466C34.3129 20.8902 33.6421 20.2148 32.7918 19.741C31.9431 19.2672 30.9619 19.0273 29.8792 19.0273C28.7965 19.0273 27.7418 19.2745 26.8724 19.7616C26.0015 20.2501 25.316 20.952 24.8365 21.8511C24.3569 22.7487 24.1142 23.8023 24.1142 24.9824C24.1142 26.1625 24.3643 27.2175 24.8585 28.1137C25.3528 29.0113 26.0442 29.7176 26.9151 30.212C27.7844 30.7064 28.7818 30.9566 29.8807 30.9566C31.2296 30.9566 32.3755 30.6137 33.2876 29.9383C34.1996 29.2629 34.8381 28.383 35.1867 27.325L35.2117 27.2499H32.5432L32.5271 27.2823C32.0137 28.3226 31.1237 28.8494 29.8792 28.8494C29.0128 28.8494 28.2713 28.5743 27.6756 28.0342C27.0945 27.506 26.7606 26.7997 26.6826 25.933H35.4088L35.4162 25.8844C35.4721 25.5357 35.5 25.1413 35.5 24.7131C35.5 23.6007 35.2602 22.603 34.7866 21.7466ZM27.7168 21.8997C28.2846 21.392 28.9774 21.136 29.7747 21.136C30.6559 21.136 31.4047 21.3964 32.0004 21.9114C32.58 22.4117 32.8875 23.0842 32.9139 23.9082H26.7076C26.8253 23.071 27.1651 22.3955 27.7182 21.9011L27.7168 21.8997Z" fill="#272727"/>
<path d="M32.7123 16.2529H26.9003V17.6302H32.7123V16.2529Z" fill="#272727"/>
</svg>
