<svg width="107" height="107" viewBox="0 0 107 107" fill="none" xmlns="http://www.w3.org/2000/svg">
<g clip-path="url(#clip0_477_496)">
<rect x="26" y="26.0654" width="55" height="55" rx="12.5" stroke="#1465FF" stroke-width="3"/>
<g clip-path="url(#clip1_477_496)">
<path d="M35.5 39.5699C36.3073 39.5699 37.0833 39.566 37.8592 39.5707C40.6649 39.5995 43.4745 39.5535 46.2757 39.6812C50.9948 39.8954 55.3057 43.5965 56.4631 48.2919C56.5948 48.8308 56.6875 49.3821 56.8461 49.9108C57.1379 50.8943 57.7499 51.3685 58.7526 51.3716C60.1451 51.3716 61.5407 51.3997 62.9294 51.3148C67.4586 51.0391 70.8672 54.6585 70.8089 58.8681C70.7676 61.9322 69.6906 64.357 67.1645 66.0639C66.0117 66.8426 64.7256 67.2047 63.343 67.2047C59.7981 67.2047 56.2527 67.201 52.7068 67.1938C52.6631 67.1795 52.6208 67.1612 52.5804 67.1393C53.0675 66.7406 53.5761 66.4112 53.9767 65.9798C54.9572 64.9239 55.9238 63.8501 56.82 62.7218C57.1218 62.3418 57.3777 62.1923 57.8411 62.1977C59.7399 62.2219 61.6403 62.2273 63.5391 62.1977C64.96 62.1767 66.1725 60.8934 66.3449 59.2987C66.4981 57.8752 65.5789 56.444 64.2568 56.0866C64.0116 56.0287 63.7602 56.0025 63.5085 56.0087C61.9252 56.0025 60.3389 55.9309 58.7595 56.022C55.4872 56.2057 53.4298 53.9974 52.5666 51.5982C52.3284 50.9371 52.1767 50.2433 51.927 49.5869C50.9535 47.0281 49.227 45.3158 46.497 44.8712C45.6307 44.7295 44.7292 44.8104 43.8437 44.8034C42.7484 44.7956 41.6523 44.8034 40.5071 44.8034V62.2117C40.7308 62.2117 40.9752 62.2156 41.2187 62.2117C43.0096 62.1814 44.828 62.3371 46.5867 62.0762C49.8872 61.5872 52.2188 58.7933 52.4525 55.3897C52.4586 55.3071 52.4678 55.2246 52.4877 55.0229C53.7646 56.3833 55.2299 57.2865 57.0016 57.7179C56.7993 59.1692 56.2732 60.5543 55.4635 61.7671C53.0675 65.3934 49.7248 67.2701 45.4086 67.288C42.2007 67.3012 38.9928 67.2989 35.7849 67.302C35.6895 67.2975 35.5944 67.2878 35.5 67.2732V39.5699Z" fill="#1465FF"/>
<path d="M54.9219 41.6741C56.2302 40.3176 57.9713 39.6261 59.9276 39.5942C63.3407 39.5397 66.7554 39.5794 70.2168 39.5794V44.7662C70.0598 44.7763 69.879 44.7981 69.6983 44.7981C67.1047 44.7981 64.5109 44.7981 61.9168 44.7981C59.8487 44.7981 59.1746 45.1096 57.9927 46.5813L54.9219 41.6741Z" fill="#1465FF"/>
</g>
</g>
<defs>
<clipPath id="clip0_477_496">
<rect width="58" height="58" fill="white" transform="translate(24.5 24.5654)"/>
</clipPath>
<clipPath id="clip1_477_496">
<rect width="35.3043" height="27.7391" fill="white" transform="translate(35.5 39.5654)"/>
</clipPath>
</defs>
</svg>
