<svg width="52" height="52" viewBox="0 0 52 52" fill="none" xmlns="http://www.w3.org/2000/svg">
<g clip-path="url(#clip0_345_493)">
<path d="M5 9.50474C5.96045 9.50474 6.88353 9.50011 7.80662 9.50567C11.1445 9.53994 14.4869 9.48529 17.8193 9.63721C23.4335 9.89196 28.562 14.295 29.9388 19.881C30.0956 20.522 30.2058 21.1779 30.3945 21.8069C30.7416 22.9769 31.4697 23.5411 32.6625 23.5448C34.3192 23.5448 35.9795 23.5781 37.6315 23.4771C43.0197 23.1492 47.0747 27.455 47.0055 32.4629C46.9563 36.1082 45.6751 38.9929 42.6698 41.0235C41.2984 41.9498 39.7684 42.3806 38.1236 42.3806C33.9064 42.3806 29.6886 42.3763 25.4701 42.3676C25.4182 42.3506 25.3679 42.3289 25.3198 42.3028C25.8993 41.8285 26.5044 41.4366 26.981 40.9234C28.1473 39.6673 29.2973 38.3898 30.3635 37.0475C30.7225 36.5954 31.0269 36.4176 31.5782 36.4241C33.8371 36.4528 36.0979 36.4593 38.3569 36.4241C40.0472 36.3991 41.4897 34.8724 41.6948 32.9752C41.877 31.2818 40.7835 29.5791 39.2107 29.1539C38.919 29.085 38.6199 29.0539 38.3204 29.0613C36.4369 29.0539 34.5497 28.9687 32.6707 29.077C28.7779 29.2957 26.3303 26.6685 25.3034 23.8143C25.02 23.0279 24.8395 22.2025 24.5425 21.4215C23.3843 18.3775 21.3303 16.3404 18.0827 15.8115C17.0521 15.6429 15.9795 15.7392 14.9261 15.7309C13.6231 15.7216 12.3191 15.7309 10.9568 15.7309V36.4407C11.2229 36.4407 11.5136 36.4454 11.8033 36.4407C13.9338 36.4046 16.0971 36.5899 18.1893 36.2795C22.1158 35.6978 24.8897 32.374 25.1676 28.3248C25.1749 28.2266 25.1858 28.1284 25.2095 27.8885C26.7285 29.5069 28.4717 30.5815 30.5794 31.0947C30.3388 32.8212 29.7129 34.4689 28.7497 35.9118C25.8993 40.2259 21.9227 42.4584 16.7878 42.4797C12.9715 42.4955 9.15526 42.4927 5.33898 42.4964C5.22548 42.491 5.11233 42.4796 5 42.4621V9.50474Z" fill="#1465FF"/>
<path d="M28.1054 12.0085C29.6618 10.3948 31.7331 9.5722 34.0604 9.53422C38.1209 9.46937 42.1832 9.51661 46.3011 9.51661V15.6872C46.1143 15.6992 45.8992 15.7251 45.6842 15.7251C42.5987 15.7251 39.5129 15.7251 36.4269 15.7251C33.9665 15.7251 33.1646 16.0957 31.7586 17.8465L28.1054 12.0085Z" fill="#1465FF"/>
</g>
<defs>
<clipPath id="clip0_345_493">
<rect width="42" height="33" fill="white" transform="translate(5 9.5)"/>
</clipPath>
</defs>
</svg>
