<svg width="47" height="47" viewBox="0 0 47 47" fill="none" xmlns="http://www.w3.org/2000/svg">
<rect width="47" height="47" rx="23.5" fill="#1465FF"/>
<g clip-path="url(#clip0_373_1714)">
<path d="M11.5 14.502C12.0488 14.502 12.5763 14.4994 13.1038 14.5025C15.0111 14.5212 16.9211 14.4914 18.8253 14.5742C22.0334 14.7132 24.964 17.1148 25.7508 20.1617C25.8403 20.5114 25.9033 20.8691 26.0111 21.2122C26.2095 21.8504 26.6256 22.1581 27.3072 22.1602C28.2538 22.1602 29.2025 22.1784 30.1466 22.1233C33.2255 21.9444 35.5427 24.293 35.5031 27.0246C35.475 29.0129 34.7429 30.5864 33.0256 31.694C32.2419 32.1993 31.3677 32.4343 30.4278 32.4343C28.0179 32.4343 25.6077 32.4319 23.1972 32.4272C23.1675 32.4179 23.1388 32.4061 23.1113 32.3918C23.4425 32.1331 23.7882 31.9194 24.0605 31.6394C24.7271 30.9543 25.3842 30.2575 25.9934 29.5253C26.1986 29.2787 26.3725 29.1817 26.6875 29.1852C27.9784 29.2009 29.2702 29.2044 30.5611 29.1852C31.527 29.1716 32.3513 28.3389 32.4684 27.304C32.5726 26.3804 31.9477 25.4516 31.049 25.2197C30.8823 25.1821 30.7113 25.1651 30.5402 25.1692C29.4639 25.1651 28.3856 25.1186 27.3119 25.1778C25.0874 25.297 23.6888 23.864 23.1019 22.3072C22.94 21.8782 22.8369 21.428 22.6671 21.002C22.0053 19.3416 20.8316 18.2305 18.9758 17.942C18.3869 17.85 17.774 17.9026 17.1721 17.898C16.4275 17.893 15.6823 17.898 14.9039 17.898V29.1943C15.0559 29.1943 15.222 29.1969 15.3876 29.1943C16.605 29.1746 17.8412 29.2757 19.0367 29.1064C21.2805 28.7891 22.8655 26.9761 23.0243 24.7675C23.0285 24.7139 23.0347 24.6603 23.0483 24.5295C23.9163 25.4122 24.9124 25.9984 26.1168 26.2783C25.9793 27.22 25.6217 28.1188 25.0712 28.9058C23.4425 31.2589 21.1701 32.4767 18.2359 32.4883C16.0552 32.4969 13.8744 32.4954 11.6937 32.4974C11.6288 32.4945 11.5642 32.4882 11.5 32.4787V14.502Z" fill="white"/>
<path d="M24.7031 15.8683C25.5925 14.9881 26.7761 14.5394 28.106 14.5187C30.4262 14.4833 32.7476 14.5091 35.1006 14.5091V17.8748C34.9939 17.8814 34.871 17.8955 34.7481 17.8955C32.985 17.8955 31.2217 17.8955 29.4582 17.8955C28.0523 17.8955 27.5941 18.0976 26.7906 19.0526L24.7031 15.8683Z" fill="white"/>
</g>
<defs>
<clipPath id="clip0_373_1714">
<rect width="24" height="18" fill="white" transform="translate(11.5 14.5)"/>
</clipPath>
</defs>
</svg>
