<svg width="107" height="107" viewBox="0 0 107 107" fill="none" xmlns="http://www.w3.org/2000/svg">
<g clip-path="url(#clip0_435_409)">
<mask id="path-1-outside-1_435_409" maskUnits="userSpaceOnUse" x="23.5" y="27.5654" width="60" height="52" fill="black">
<rect fill="white" x="23.5" y="27.5654" width="60" height="52"/>
<path d="M82.5 33.3905V73.2521C82.4697 73.3241 82.4243 73.3914 82.4092 73.4666C81.8266 76.3322 79.826 78.0579 77.0551 78.0755C76.0548 78.0819 75.0545 78.0755 74.0527 78.0755C59.3841 78.0755 44.7155 78.0771 30.0454 78.0755C26.8114 78.0755 24.5066 75.719 24.5036 72.3812C24.4976 59.6719 24.4976 46.9658 24.5157 34.2597C24.5157 33.6114 24.6217 32.9374 24.8139 32.3227C25.5523 29.9598 27.5242 28.5654 30.0484 28.5654C45.6795 28.5654 61.312 28.5654 76.9431 28.5654C77.0944 28.5654 77.2458 28.5654 77.3956 28.5718C79.4824 28.6855 81.0064 29.7421 81.9461 31.7031C82.1973 32.2282 82.3184 32.8237 82.4985 33.3872L82.5 33.3905ZM34.8562 75.6454C34.8562 73.2617 34.8562 70.9421 34.8562 68.6224C34.8562 66.8022 34.8441 64.9804 34.8608 63.1602C34.8774 61.3817 35.9322 60.2819 37.5968 60.2771C38.8241 60.2739 40.0514 60.2755 41.2772 60.2771C43.0947 60.2787 44.1102 61.3544 44.1117 63.2883C44.1147 67.1704 44.1117 71.0509 44.1117 74.933C44.1117 75.1651 44.1117 75.3973 44.1117 75.6422H47.503C47.503 75.3941 47.503 75.1796 47.503 74.965C47.503 72.9239 47.5 70.8828 47.506 68.8433C47.506 68.5456 47.5257 68.243 47.5711 67.95C47.727 66.9367 48.3232 66.2419 49.1177 65.696C48.1477 63.2243 47.1928 60.7909 46.2379 58.3592C45.3647 56.1356 45.6689 54.674 47.3002 53.0123C49.3341 50.9408 51.2485 48.7652 52.5106 46.0421C52.7088 45.6147 53.0478 45.3858 53.5109 45.3858C53.9967 45.3858 54.319 45.6339 54.552 46.0741C54.941 46.8041 55.2678 47.5966 55.7688 48.2289C57.1368 49.9563 58.5487 51.65 60.0076 53.2925C61.2076 54.6436 61.5784 56.2477 60.9216 57.975C60.5841 58.8635 60.23 59.7472 59.885 60.6325C59.2267 62.3278 58.5699 64.0231 57.904 65.7344C59.1389 66.5124 59.5354 67.6747 59.5066 69.1059C59.4658 71.0653 59.4961 73.0264 59.4961 74.9874V75.6278H62.6695C62.6695 75.3621 62.6695 75.1443 62.6695 74.925C62.6695 72.0434 62.6392 69.1619 62.6937 66.2819C62.7058 65.6832 62.8935 64.966 63.2476 64.5258C63.6774 63.9911 63.7697 63.482 63.75 62.8529C63.7122 61.5898 64.2343 60.6725 65.2936 60.0786C65.4449 59.9937 65.5917 59.7376 65.5993 59.5551C65.6326 58.7562 65.6068 57.9558 65.6159 57.1554C65.625 56.3613 66.0608 55.8523 66.7206 55.8394C67.4001 55.8266 67.8647 56.3517 67.8768 57.1698C67.8889 57.9494 67.895 58.7306 67.8723 59.5102C67.8632 59.8352 67.9555 60.0033 68.243 60.141C68.9709 60.49 69.4688 61.0983 69.6353 61.9244C69.7397 62.4446 69.6867 62.9985 69.7352 63.5348C69.7533 63.7349 69.8063 63.9863 69.9334 64.1095C70.5978 64.7531 70.8338 65.5455 70.8293 66.4756C70.8142 69.3172 70.8247 72.1571 70.8247 74.9986C70.8247 75.2116 70.8247 75.4229 70.8247 75.6774C72.9177 75.6774 74.9334 75.6806 76.9507 75.6774C79.0073 75.6742 80.233 74.3823 80.233 72.2147C80.2346 63.2515 80.233 54.2882 80.233 45.3233C80.233 45.112 80.233 44.9023 80.233 44.6926H26.7675C26.7675 44.9359 26.7675 45.1504 26.7675 45.365C26.7675 54.2882 26.7675 63.2115 26.7675 72.1363C26.7675 72.3364 26.763 72.5365 26.7766 72.7366C26.872 74.1838 27.96 75.5478 29.2993 75.6214C31.1214 75.7223 32.951 75.647 34.8562 75.647V75.6454ZM26.7751 42.2128H80.2255C80.2255 39.4065 80.2255 36.645 80.224 33.8851C80.224 33.7859 80.2043 33.6866 80.1861 33.589C79.8804 31.9385 78.688 30.9667 76.9476 30.9667C61.3151 30.9667 45.684 30.9667 30.0514 30.9667C29.9001 30.9667 29.7488 30.9667 29.599 30.9747C28.1204 31.0468 26.822 32.3147 26.7902 33.8867C26.7358 36.645 26.7751 39.4065 26.7751 42.2144V42.2128ZM52.3683 65.3086C52.3683 63.3699 52.3638 61.4521 52.3714 59.5359C52.3744 58.7114 52.8314 58.2007 53.523 58.2135C54.1889 58.2247 54.6247 58.7258 54.6307 59.523C54.6398 60.9622 54.6338 62.403 54.6338 63.8422C54.6338 64.3369 54.6338 64.8331 54.6338 65.4126C55.0575 65.2718 55.5054 65.6352 55.7461 65.006C56.7645 62.3422 57.8087 59.6879 58.8378 57.0289C59.1359 56.2589 58.9846 55.5865 58.4156 55.0118C57.9373 54.5283 57.4425 54.0609 57.0066 53.5374C55.8126 52.103 54.6474 50.643 53.4564 49.1766C53.4504 49.1846 53.3823 49.2487 53.3323 49.3271C52.0127 51.3906 50.4207 53.2012 48.7137 54.9061C47.9646 55.6537 47.8496 56.2124 48.2415 57.213C49.2176 59.7023 50.2209 62.1789 51.1577 64.6842C51.3998 65.331 51.7191 65.5183 52.3698 65.3118L52.3683 65.3086ZM57.2336 75.6566V75.0675C57.2336 73.0088 57.2336 70.9517 57.2336 68.8929C57.2336 67.9981 57.0399 67.7835 56.2106 67.7819C54.4007 67.7771 52.5908 67.7771 50.7809 67.7819C49.9743 67.7835 49.77 68.0013 49.7685 68.8433C49.7654 70.9421 49.7669 73.0392 49.7685 75.1379C49.7685 75.3092 49.7896 75.4789 49.8017 75.6582H57.2321L57.2336 75.6566ZM41.8462 75.6486C41.8462 74.9426 41.8462 74.3055 41.8462 73.6667C41.8462 70.2281 41.8462 66.7878 41.8462 63.3491C41.8462 62.9953 41.875 62.6624 41.3756 62.6688C40.112 62.6864 38.8468 62.6608 37.5847 62.6928C37.4289 62.696 37.1686 62.9217 37.1474 63.0722C37.0884 63.5156 37.1262 63.9735 37.1262 64.4649C37.6619 64.4649 38.1129 64.4585 38.5639 64.4649C39.3493 64.4777 39.8577 64.9404 39.8668 65.64C39.8774 66.362 39.3523 66.8486 38.5396 66.8614C38.0902 66.8678 37.6407 66.8614 37.1701 66.8614V68.3422C37.7088 68.3422 38.1976 68.3246 38.6864 68.347C39.381 68.3775 39.8608 68.8769 39.8668 69.5397C39.8729 70.2233 39.372 70.7211 38.6456 70.7387C38.1613 70.7499 37.6755 70.7403 37.1686 70.7403V72.2484C37.6665 72.2484 38.1159 72.2404 38.5669 72.25C39.3599 72.2676 39.8608 72.727 39.8683 73.4282C39.8774 74.1502 39.3583 74.6289 38.5381 74.6449C38.0902 74.6529 37.6407 74.6449 37.164 74.6449V75.6422H41.8462V75.6486ZM68.5593 75.6454C68.5593 72.4917 68.5563 69.4132 68.5639 66.3347C68.5639 65.9665 68.3838 65.9121 68.0978 65.9137C67.2291 65.9233 66.3605 65.9441 65.4933 65.9057C65.0257 65.8849 64.9243 66.069 64.9274 66.5285C64.944 69.4084 64.9349 72.29 64.9379 75.1699C64.9379 75.3236 64.9607 75.4773 64.9743 75.6454H68.5593ZM67.5227 63.4868C67.4425 63.0706 67.4803 62.5119 67.2745 62.379C66.9976 62.1997 66.4467 62.2125 66.1758 62.403C65.9776 62.5423 66.0412 63.0994 65.9852 63.4868H67.5227Z"/>
</mask>
<path d="M82.5 33.3905V73.2521C82.4697 73.3241 82.4243 73.3914 82.4092 73.4666C81.8266 76.3322 79.826 78.0579 77.0551 78.0755C76.0548 78.0819 75.0545 78.0755 74.0527 78.0755C59.3841 78.0755 44.7155 78.0771 30.0454 78.0755C26.8114 78.0755 24.5066 75.719 24.5036 72.3812C24.4976 59.6719 24.4976 46.9658 24.5157 34.2597C24.5157 33.6114 24.6217 32.9374 24.8139 32.3227C25.5523 29.9598 27.5242 28.5654 30.0484 28.5654C45.6795 28.5654 61.312 28.5654 76.9431 28.5654C77.0944 28.5654 77.2458 28.5654 77.3956 28.5718C79.4824 28.6855 81.0064 29.7421 81.9461 31.7031C82.1973 32.2282 82.3184 32.8237 82.4985 33.3872L82.5 33.3905ZM34.8562 75.6454C34.8562 73.2617 34.8562 70.9421 34.8562 68.6224C34.8562 66.8022 34.8441 64.9804 34.8608 63.1602C34.8774 61.3817 35.9322 60.2819 37.5968 60.2771C38.8241 60.2739 40.0514 60.2755 41.2772 60.2771C43.0947 60.2787 44.1102 61.3544 44.1117 63.2883C44.1147 67.1704 44.1117 71.0509 44.1117 74.933C44.1117 75.1651 44.1117 75.3973 44.1117 75.6422H47.503C47.503 75.3941 47.503 75.1796 47.503 74.965C47.503 72.9239 47.5 70.8828 47.506 68.8433C47.506 68.5456 47.5257 68.243 47.5711 67.95C47.727 66.9367 48.3232 66.2419 49.1177 65.696C48.1477 63.2243 47.1928 60.7909 46.2379 58.3592C45.3647 56.1356 45.6689 54.674 47.3002 53.0123C49.3341 50.9408 51.2485 48.7652 52.5106 46.0421C52.7088 45.6147 53.0478 45.3858 53.5109 45.3858C53.9967 45.3858 54.319 45.6339 54.552 46.0741C54.941 46.8041 55.2678 47.5966 55.7688 48.2289C57.1368 49.9563 58.5487 51.65 60.0076 53.2925C61.2076 54.6436 61.5784 56.2477 60.9216 57.975C60.5841 58.8635 60.23 59.7472 59.885 60.6325C59.2267 62.3278 58.5699 64.0231 57.904 65.7344C59.1389 66.5124 59.5354 67.6747 59.5066 69.1059C59.4658 71.0653 59.4961 73.0264 59.4961 74.9874V75.6278H62.6695C62.6695 75.3621 62.6695 75.1443 62.6695 74.925C62.6695 72.0434 62.6392 69.1619 62.6937 66.2819C62.7058 65.6832 62.8935 64.966 63.2476 64.5258C63.6774 63.9911 63.7697 63.482 63.75 62.8529C63.7122 61.5898 64.2343 60.6725 65.2936 60.0786C65.4449 59.9937 65.5917 59.7376 65.5993 59.5551C65.6326 58.7562 65.6068 57.9558 65.6159 57.1554C65.625 56.3613 66.0608 55.8523 66.7206 55.8394C67.4001 55.8266 67.8647 56.3517 67.8768 57.1698C67.8889 57.9494 67.895 58.7306 67.8723 59.5102C67.8632 59.8352 67.9555 60.0033 68.243 60.141C68.9709 60.49 69.4688 61.0983 69.6353 61.9244C69.7397 62.4446 69.6867 62.9985 69.7352 63.5348C69.7533 63.7349 69.8063 63.9863 69.9334 64.1095C70.5978 64.7531 70.8338 65.5455 70.8293 66.4756C70.8142 69.3172 70.8247 72.1571 70.8247 74.9986C70.8247 75.2116 70.8247 75.4229 70.8247 75.6774C72.9177 75.6774 74.9334 75.6806 76.9507 75.6774C79.0073 75.6742 80.233 74.3823 80.233 72.2147C80.2346 63.2515 80.233 54.2882 80.233 45.3233C80.233 45.112 80.233 44.9023 80.233 44.6926H26.7675C26.7675 44.9359 26.7675 45.1504 26.7675 45.365C26.7675 54.2882 26.7675 63.2115 26.7675 72.1363C26.7675 72.3364 26.763 72.5365 26.7766 72.7366C26.872 74.1838 27.96 75.5478 29.2993 75.6214C31.1214 75.7223 32.951 75.647 34.8562 75.647V75.6454ZM26.7751 42.2128H80.2255C80.2255 39.4065 80.2255 36.645 80.224 33.8851C80.224 33.7859 80.2043 33.6866 80.1861 33.589C79.8804 31.9385 78.688 30.9667 76.9476 30.9667C61.3151 30.9667 45.684 30.9667 30.0514 30.9667C29.9001 30.9667 29.7488 30.9667 29.599 30.9747C28.1204 31.0468 26.822 32.3147 26.7902 33.8867C26.7358 36.645 26.7751 39.4065 26.7751 42.2144V42.2128ZM52.3683 65.3086C52.3683 63.3699 52.3638 61.4521 52.3714 59.5359C52.3744 58.7114 52.8314 58.2007 53.523 58.2135C54.1889 58.2247 54.6247 58.7258 54.6307 59.523C54.6398 60.9622 54.6338 62.403 54.6338 63.8422C54.6338 64.3369 54.6338 64.8331 54.6338 65.4126C55.0575 65.2718 55.5054 65.6352 55.7461 65.006C56.7645 62.3422 57.8087 59.6879 58.8378 57.0289C59.1359 56.2589 58.9846 55.5865 58.4156 55.0118C57.9373 54.5283 57.4425 54.0609 57.0066 53.5374C55.8126 52.103 54.6474 50.643 53.4564 49.1766C53.4504 49.1846 53.3823 49.2487 53.3323 49.3271C52.0127 51.3906 50.4207 53.2012 48.7137 54.9061C47.9646 55.6537 47.8496 56.2124 48.2415 57.213C49.2176 59.7023 50.2209 62.1789 51.1577 64.6842C51.3998 65.331 51.7191 65.5183 52.3698 65.3118L52.3683 65.3086ZM57.2336 75.6566V75.0675C57.2336 73.0088 57.2336 70.9517 57.2336 68.8929C57.2336 67.9981 57.0399 67.7835 56.2106 67.7819C54.4007 67.7771 52.5908 67.7771 50.7809 67.7819C49.9743 67.7835 49.77 68.0013 49.7685 68.8433C49.7654 70.9421 49.7669 73.0392 49.7685 75.1379C49.7685 75.3092 49.7896 75.4789 49.8017 75.6582H57.2321L57.2336 75.6566ZM41.8462 75.6486C41.8462 74.9426 41.8462 74.3055 41.8462 73.6667C41.8462 70.2281 41.8462 66.7878 41.8462 63.3491C41.8462 62.9953 41.875 62.6624 41.3756 62.6688C40.112 62.6864 38.8468 62.6608 37.5847 62.6928C37.4289 62.696 37.1686 62.9217 37.1474 63.0722C37.0884 63.5156 37.1262 63.9735 37.1262 64.4649C37.6619 64.4649 38.1129 64.4585 38.5639 64.4649C39.3493 64.4777 39.8577 64.9404 39.8668 65.64C39.8774 66.362 39.3523 66.8486 38.5396 66.8614C38.0902 66.8678 37.6407 66.8614 37.1701 66.8614V68.3422C37.7088 68.3422 38.1976 68.3246 38.6864 68.347C39.381 68.3775 39.8608 68.8769 39.8668 69.5397C39.8729 70.2233 39.372 70.7211 38.6456 70.7387C38.1613 70.7499 37.6755 70.7403 37.1686 70.7403V72.2484C37.6665 72.2484 38.1159 72.2404 38.5669 72.25C39.3599 72.2676 39.8608 72.727 39.8683 73.4282C39.8774 74.1502 39.3583 74.6289 38.5381 74.6449C38.0902 74.6529 37.6407 74.6449 37.164 74.6449V75.6422H41.8462V75.6486ZM68.5593 75.6454C68.5593 72.4917 68.5563 69.4132 68.5639 66.3347C68.5639 65.9665 68.3838 65.9121 68.0978 65.9137C67.2291 65.9233 66.3605 65.9441 65.4933 65.9057C65.0257 65.8849 64.9243 66.069 64.9274 66.5285C64.944 69.4084 64.9349 72.29 64.9379 75.1699C64.9379 75.3236 64.9607 75.4773 64.9743 75.6454H68.5593ZM67.5227 63.4868C67.4425 63.0706 67.4803 62.5119 67.2745 62.379C66.9976 62.1997 66.4467 62.2125 66.1758 62.403C65.9776 62.5423 66.0412 63.0994 65.9852 63.4868H67.5227Z" fill="#1465FF"/>
<path d="M82.5 33.3905V73.2521C82.4697 73.3241 82.4243 73.3914 82.4092 73.4666C81.8266 76.3322 79.826 78.0579 77.0551 78.0755C76.0548 78.0819 75.0545 78.0755 74.0527 78.0755C59.3841 78.0755 44.7155 78.0771 30.0454 78.0755C26.8114 78.0755 24.5066 75.719 24.5036 72.3812C24.4976 59.6719 24.4976 46.9658 24.5157 34.2597C24.5157 33.6114 24.6217 32.9374 24.8139 32.3227C25.5523 29.9598 27.5242 28.5654 30.0484 28.5654C45.6795 28.5654 61.312 28.5654 76.9431 28.5654C77.0944 28.5654 77.2458 28.5654 77.3956 28.5718C79.4824 28.6855 81.0064 29.7421 81.9461 31.7031C82.1973 32.2282 82.3184 32.8237 82.4985 33.3872L82.5 33.3905ZM34.8562 75.6454C34.8562 73.2617 34.8562 70.9421 34.8562 68.6224C34.8562 66.8022 34.8441 64.9804 34.8608 63.1602C34.8774 61.3817 35.9322 60.2819 37.5968 60.2771C38.8241 60.2739 40.0514 60.2755 41.2772 60.2771C43.0947 60.2787 44.1102 61.3544 44.1117 63.2883C44.1147 67.1704 44.1117 71.0509 44.1117 74.933C44.1117 75.1651 44.1117 75.3973 44.1117 75.6422H47.503C47.503 75.3941 47.503 75.1796 47.503 74.965C47.503 72.9239 47.5 70.8828 47.506 68.8433C47.506 68.5456 47.5257 68.243 47.5711 67.95C47.727 66.9367 48.3232 66.2419 49.1177 65.696C48.1477 63.2243 47.1928 60.7909 46.2379 58.3592C45.3647 56.1356 45.6689 54.674 47.3002 53.0123C49.3341 50.9408 51.2485 48.7652 52.5106 46.0421C52.7088 45.6147 53.0478 45.3858 53.5109 45.3858C53.9967 45.3858 54.319 45.6339 54.552 46.0741C54.941 46.8041 55.2678 47.5966 55.7688 48.2289C57.1368 49.9563 58.5487 51.65 60.0076 53.2925C61.2076 54.6436 61.5784 56.2477 60.9216 57.975C60.5841 58.8635 60.23 59.7472 59.885 60.6325C59.2267 62.3278 58.5699 64.0231 57.904 65.7344C59.1389 66.5124 59.5354 67.6747 59.5066 69.1059C59.4658 71.0653 59.4961 73.0264 59.4961 74.9874V75.6278H62.6695C62.6695 75.3621 62.6695 75.1443 62.6695 74.925C62.6695 72.0434 62.6392 69.1619 62.6937 66.2819C62.7058 65.6832 62.8935 64.966 63.2476 64.5258C63.6774 63.9911 63.7697 63.482 63.75 62.8529C63.7122 61.5898 64.2343 60.6725 65.2936 60.0786C65.4449 59.9937 65.5917 59.7376 65.5993 59.5551C65.6326 58.7562 65.6068 57.9558 65.6159 57.1554C65.625 56.3613 66.0608 55.8523 66.7206 55.8394C67.4001 55.8266 67.8647 56.3517 67.8768 57.1698C67.8889 57.9494 67.895 58.7306 67.8723 59.5102C67.8632 59.8352 67.9555 60.0033 68.243 60.141C68.9709 60.49 69.4688 61.0983 69.6353 61.9244C69.7397 62.4446 69.6867 62.9985 69.7352 63.5348C69.7533 63.7349 69.8063 63.9863 69.9334 64.1095C70.5978 64.7531 70.8338 65.5455 70.8293 66.4756C70.8142 69.3172 70.8247 72.1571 70.8247 74.9986C70.8247 75.2116 70.8247 75.4229 70.8247 75.6774C72.9177 75.6774 74.9334 75.6806 76.9507 75.6774C79.0073 75.6742 80.233 74.3823 80.233 72.2147C80.2346 63.2515 80.233 54.2882 80.233 45.3233C80.233 45.112 80.233 44.9023 80.233 44.6926H26.7675C26.7675 44.9359 26.7675 45.1504 26.7675 45.365C26.7675 54.2882 26.7675 63.2115 26.7675 72.1363C26.7675 72.3364 26.763 72.5365 26.7766 72.7366C26.872 74.1838 27.96 75.5478 29.2993 75.6214C31.1214 75.7223 32.951 75.647 34.8562 75.647V75.6454ZM26.7751 42.2128H80.2255C80.2255 39.4065 80.2255 36.645 80.224 33.8851C80.224 33.7859 80.2043 33.6866 80.1861 33.589C79.8804 31.9385 78.688 30.9667 76.9476 30.9667C61.3151 30.9667 45.684 30.9667 30.0514 30.9667C29.9001 30.9667 29.7488 30.9667 29.599 30.9747C28.1204 31.0468 26.822 32.3147 26.7902 33.8867C26.7358 36.645 26.7751 39.4065 26.7751 42.2144V42.2128ZM52.3683 65.3086C52.3683 63.3699 52.3638 61.4521 52.3714 59.5359C52.3744 58.7114 52.8314 58.2007 53.523 58.2135C54.1889 58.2247 54.6247 58.7258 54.6307 59.523C54.6398 60.9622 54.6338 62.403 54.6338 63.8422C54.6338 64.3369 54.6338 64.8331 54.6338 65.4126C55.0575 65.2718 55.5054 65.6352 55.7461 65.006C56.7645 62.3422 57.8087 59.6879 58.8378 57.0289C59.1359 56.2589 58.9846 55.5865 58.4156 55.0118C57.9373 54.5283 57.4425 54.0609 57.0066 53.5374C55.8126 52.103 54.6474 50.643 53.4564 49.1766C53.4504 49.1846 53.3823 49.2487 53.3323 49.3271C52.0127 51.3906 50.4207 53.2012 48.7137 54.9061C47.9646 55.6537 47.8496 56.2124 48.2415 57.213C49.2176 59.7023 50.2209 62.1789 51.1577 64.6842C51.3998 65.331 51.7191 65.5183 52.3698 65.3118L52.3683 65.3086ZM57.2336 75.6566V75.0675C57.2336 73.0088 57.2336 70.9517 57.2336 68.8929C57.2336 67.9981 57.0399 67.7835 56.2106 67.7819C54.4007 67.7771 52.5908 67.7771 50.7809 67.7819C49.9743 67.7835 49.77 68.0013 49.7685 68.8433C49.7654 70.9421 49.7669 73.0392 49.7685 75.1379C49.7685 75.3092 49.7896 75.4789 49.8017 75.6582H57.2321L57.2336 75.6566ZM41.8462 75.6486C41.8462 74.9426 41.8462 74.3055 41.8462 73.6667C41.8462 70.2281 41.8462 66.7878 41.8462 63.3491C41.8462 62.9953 41.875 62.6624 41.3756 62.6688C40.112 62.6864 38.8468 62.6608 37.5847 62.6928C37.4289 62.696 37.1686 62.9217 37.1474 63.0722C37.0884 63.5156 37.1262 63.9735 37.1262 64.4649C37.6619 64.4649 38.1129 64.4585 38.5639 64.4649C39.3493 64.4777 39.8577 64.9404 39.8668 65.64C39.8774 66.362 39.3523 66.8486 38.5396 66.8614C38.0902 66.8678 37.6407 66.8614 37.1701 66.8614V68.3422C37.7088 68.3422 38.1976 68.3246 38.6864 68.347C39.381 68.3775 39.8608 68.8769 39.8668 69.5397C39.8729 70.2233 39.372 70.7211 38.6456 70.7387C38.1613 70.7499 37.6755 70.7403 37.1686 70.7403V72.2484C37.6665 72.2484 38.1159 72.2404 38.5669 72.25C39.3599 72.2676 39.8608 72.727 39.8683 73.4282C39.8774 74.1502 39.3583 74.6289 38.5381 74.6449C38.0902 74.6529 37.6407 74.6449 37.164 74.6449V75.6422H41.8462V75.6486ZM68.5593 75.6454C68.5593 72.4917 68.5563 69.4132 68.5639 66.3347C68.5639 65.9665 68.3838 65.9121 68.0978 65.9137C67.2291 65.9233 66.3605 65.9441 65.4933 65.9057C65.0257 65.8849 64.9243 66.069 64.9274 66.5285C64.944 69.4084 64.9349 72.29 64.9379 75.1699C64.9379 75.3236 64.9607 75.4773 64.9743 75.6454H68.5593ZM67.5227 63.4868C67.4425 63.0706 67.4803 62.5119 67.2745 62.379C66.9976 62.1997 66.4467 62.2125 66.1758 62.403C65.9776 62.5423 66.0412 63.0994 65.9852 63.4868H67.5227Z" stroke="#1465FF" mask="url(#path-1-outside-1_435_409)"/>
<path d="M41.7794 33.3535C43.6726 33.3503 45.2101 34.9672 45.2147 36.9667C45.2192 38.9534 43.6711 40.5943 41.7885 40.5975C39.9075 40.6007 38.3563 38.9646 38.3533 36.9763C38.3503 34.98 39.8863 33.3567 41.7794 33.3535ZM41.7961 35.758C41.162 35.7516 40.6384 36.2815 40.6233 36.9443C40.6066 37.6198 41.156 38.2026 41.8006 38.1929C42.4226 38.1833 42.9462 37.623 42.9462 36.9683C42.9462 36.3071 42.4271 35.7628 41.7961 35.7564V35.758Z" fill="#161616"/>
<path d="M35.9642 36.9898C35.9566 38.9988 34.4327 40.6029 32.535 40.5965C30.6464 40.5901 29.1331 38.9652 29.1376 36.9529C29.1437 34.9438 30.6706 33.343 32.5698 33.3526C34.472 33.3622 35.9717 34.9679 35.9642 36.9898ZM31.4045 36.9577C31.3985 37.6397 31.9009 38.1856 32.538 38.1936C33.1827 38.2016 33.6881 37.6733 33.6957 36.9866C33.7033 36.295 33.216 35.7667 32.5653 35.7603C31.9145 35.7539 31.4106 36.2726 31.4061 36.9593L31.4045 36.9577Z" fill="#161616"/>
<path d="M51.0048 33.3526C52.907 33.3462 54.4233 34.9438 54.4264 36.9593C54.4309 38.9732 52.9176 40.5901 51.0244 40.5949C49.1328 40.5997 47.6028 38.986 47.5998 36.9817C47.5968 34.9662 49.104 33.3574 51.0048 33.3526ZM52.1579 36.9849C52.164 36.2934 51.6767 35.7651 51.0259 35.7587C50.3752 35.7523 49.8728 36.2725 49.8667 36.9577C49.8622 37.6397 50.3631 38.1856 51.0017 38.192C51.6464 38.1984 52.1519 37.6701 52.1579 36.9833V36.9849Z" fill="#161616"/>
</g>
<defs>
<clipPath id="clip0_435_409">
<rect width="58" height="58" fill="white" transform="translate(24.5 24.5654)"/>
</clipPath>
</defs>
</svg>
