<svg width="47" height="47" viewBox="0 0 47 47" fill="none" xmlns="http://www.w3.org/2000/svg">
<rect width="47" height="47" rx="23.5" fill="white"/>
<path d="M12.3415 16.3471C11.7795 15.8253 11.5 15.1794 11.5 14.4108C11.5 13.6423 11.781 12.9679 12.3415 12.4446C12.9036 11.9228 13.627 11.6611 14.5134 11.6611C15.3998 11.6611 16.0949 11.9228 16.6555 12.4446C17.2175 12.9664 17.497 13.6228 17.497 14.4108C17.497 15.1988 17.216 15.8253 16.6555 16.3471C16.0934 16.8689 15.3804 17.1306 14.5134 17.1306C13.6465 17.1306 12.9036 16.8689 12.3415 16.3471ZM17.0247 19.3405V35.3393H11.9708V19.3405H17.0247Z" fill="#272727"/>
<path d="M33.8482 20.9212C34.9499 22.1174 35.5 23.7591 35.5 25.8494V35.0569H30.7003V26.4983C30.7003 25.4442 30.4267 24.6248 29.8811 24.0417C29.3356 23.4586 28.6001 23.1655 27.6794 23.1655C26.7586 23.1655 26.0231 23.4571 25.4775 24.0417C24.9319 24.6248 24.6584 25.4442 24.6584 26.4983V35.0569H19.8303V19.2959H24.6584V21.3862C25.1472 20.6894 25.8064 20.1392 26.6345 19.734C27.4626 19.3288 28.3939 19.127 29.4297 19.127C31.2743 19.127 32.7481 19.725 33.8482 20.9197V20.9212Z" fill="#272727"/>
</svg>
