<svg width="107" height="107" viewBox="0 0 107 107" fill="none" xmlns="http://www.w3.org/2000/svg">
<g clip-path="url(#clip0_345_635)">
<path d="M46.7509 73.9092H79.9355V60.4248H46.7509V73.9092ZM27.041 52.1416H60.2285V38.6572H27.041V52.1416ZM64.7822 30.4033H70.8954V27.1221H64.7822V30.4033ZM36.1161 30.3916H61.9423V27.1123H36.1161V30.3916ZM82.7499 75.7119L82.7255 75.7637C82.5516 76.128 82.3087 76.3794 81.9999 76.5342C81.7729 76.648 81.5215 76.7037 81.2548 76.7227L80.9833 76.7305C78.6898 76.7018 76.3978 76.7197 74.0995 76.7197H73.6855C73.683 78.1966 73.661 79.6101 73.6982 81.0244L73.6933 81.2988C73.6757 81.5678 73.6185 81.8186 73.5048 82.0459C73.3515 82.3524 73.1058 82.5964 72.7636 82.7842L72.7079 82.8154H34.291L34.2343 82.7852C33.8876 82.5963 33.6461 82.3488 33.496 82.041C33.3485 81.7383 33.298 81.3945 33.2988 81.0254L33.3115 68.2031V54.9492H25.8994C25.3735 54.9492 24.9407 54.845 24.6464 54.5469C24.3531 54.2495 24.2509 53.8135 24.2509 53.2842V37.4893L24.2558 37.3018C24.2797 36.8728 24.3921 36.516 24.6474 36.2617C24.9387 35.9716 25.364 35.867 25.8779 35.8662H33.3115V35.4521C33.3115 32.3362 33.3275 29.2259 33.2988 26.1133V26.1123C33.2956 25.7424 33.3458 25.3981 33.4941 25.0947C33.6448 24.7865 33.8877 24.5396 34.2353 24.3516L34.291 24.3213H72.3915V24.1445L72.7617 24.3457L72.8867 24.4199C73.1671 24.5979 73.3685 24.8204 73.4999 25.0898C73.6109 25.3173 73.667 25.568 73.6874 25.835L73.6972 26.1074C73.6745 30.713 73.6845 35.3167 73.6845 39.9238C73.6845 40.0573 73.6922 40.234 73.6757 40.3994L73.6767 40.4004C73.6124 41.091 73.113 41.6162 72.4511 41.6855L72.3163 41.6934C71.6125 41.7003 71.0378 41.2055 70.9404 40.5L70.9277 40.3564C70.9016 39.7468 70.9179 39.128 70.9179 38.5332V33.2441H36.1191V35.8623H61.2333C61.844 35.8623 62.3272 35.9417 62.6415 36.2529C62.9567 36.565 63.037 37.0457 63.037 37.6514V53.168C63.037 53.7608 62.951 54.2347 62.6425 54.5469C62.3331 54.8599 61.8625 54.9482 61.2744 54.9482H36.1191V80.0137H70.8906V76.7168H45.829C45.1763 76.7168 44.6692 76.6478 44.3486 76.3223C44.0294 75.9979 43.9619 75.4854 43.9619 74.8232V59.3633C43.9619 58.7932 44.0566 58.3335 44.3671 58.0273C44.6767 57.7221 45.1408 57.6289 45.7177 57.6289H70.9208V57.2598C70.9208 55.0702 70.9183 52.8793 70.9228 50.6904C70.9229 50.3182 71.0026 49.9911 71.1767 49.7285C71.3531 49.4625 71.6126 49.283 71.9326 49.1885L72.1015 49.1494C72.4956 49.0825 72.8712 49.1928 73.1581 49.4355C73.4837 49.711 73.6809 50.144 73.6835 50.6465L73.6865 57.2158V57.6309H75.0605C77.0266 57.6309 78.9856 57.6513 80.9453 57.6182L81.2177 57.625C81.485 57.6436 81.7362 57.6996 81.9648 57.8105C82.273 57.9601 82.523 58.2003 82.7167 58.54L82.7499 58.5977V75.7119Z" fill="#1465FF" stroke="#1465FF" stroke-width="0.5"/>
<path d="M72.2241 43.7783C73.1303 43.735 73.9091 44.4519 73.9311 45.3613L73.9262 45.5283C73.8587 46.355 73.1479 47.0312 72.3022 47.0312C71.4856 47.0312 70.789 46.3965 70.687 45.6016L70.6752 45.4404C70.6533 44.5655 71.3479 43.8189 72.2241 43.7773V43.7783Z" fill="#1465FF" stroke="#1465FF"/>
<path d="M35.0301 41.5489C36.2937 41.5489 37.5558 41.5444 38.8194 41.5504C39.7123 41.5549 40.1269 41.9733 40.1299 42.8735C40.136 44.5514 40.136 46.2279 40.1299 47.9059C40.1269 48.8272 39.7047 49.2471 38.7695 49.2486C36.2816 49.2531 33.7938 49.2531 31.3044 49.2486C30.3677 49.2471 29.9409 48.8287 29.9379 47.9119C29.9318 46.234 29.9334 44.5575 29.9379 42.8795C29.9409 41.9552 30.354 41.5519 31.2983 41.5489C32.5423 41.5444 33.7862 41.5489 35.0301 41.5489ZM37.8343 46.9589V43.8491H32.2442V46.9589H37.8343Z" fill="#161616"/>
<path d="M50.3379 43.8129C48.528 43.8129 46.7196 43.8129 44.9097 43.8129C44.7584 43.8129 44.6071 43.8189 44.4572 43.8098C43.7763 43.7645 43.2981 43.2827 43.3086 42.6574C43.3177 42.0246 43.7959 41.5625 44.4936 41.5534C45.5302 41.5398 46.5668 41.5489 47.6034 41.5489C50.2607 41.5489 52.9181 41.5489 55.5754 41.5489C56.8193 41.5489 57.3596 41.8977 57.346 42.6922C57.3323 43.464 56.7891 43.8129 55.5966 43.8129C53.8442 43.8129 52.0918 43.8129 50.3379 43.8129Z" fill="#161616"/>
<path d="M50.3544 46.9887C52.2959 46.9887 54.2375 46.9811 56.1775 46.9932C56.8691 46.9977 57.3458 47.4765 57.3458 48.1123C57.3458 48.7165 56.8857 49.1907 56.2365 49.2466C56.0867 49.2587 55.9354 49.2527 55.7841 49.2527C52.1461 49.2527 48.5097 49.2527 44.8717 49.2527C44.7582 49.2527 44.6447 49.2557 44.5327 49.2527C43.8079 49.224 43.31 48.7603 43.3085 48.1169C43.3085 47.4629 43.7973 46.9962 44.5297 46.9932C46.4713 46.9841 48.4113 46.9902 50.3529 46.9917L50.3544 46.9887Z" fill="#161616"/>
<path d="M54.7245 71.0167C53.4609 71.0167 52.1988 71.0228 50.9352 71.0152C50.0772 71.0107 49.6535 70.5848 49.6489 69.7239C49.6414 68.0278 49.6429 66.3317 49.6489 64.634C49.6519 63.749 50.0832 63.3185 50.9761 63.317C53.4836 63.311 55.9896 63.311 58.4972 63.317C59.4187 63.3185 59.8379 63.746 59.841 64.6748C59.8455 66.3528 59.847 68.0293 59.841 69.7073C59.8379 70.5969 59.4142 71.0107 58.5138 71.0152C57.2502 71.0213 55.9881 71.0152 54.7245 71.0152V71.0167ZM51.9385 68.7104H57.5286V65.6112H51.9385V68.7104Z" fill="#161616"/>
<path d="M70.0313 65.5802C68.1473 65.5802 66.2617 65.5832 64.3777 65.5802C63.5393 65.5787 63.0339 65.1618 63.0187 64.4761C63.0036 63.7784 63.5393 63.3177 64.3898 63.3177C68.1594 63.3147 71.929 63.3147 75.6971 63.3177C76.5264 63.3177 77.0409 63.7497 77.0561 64.4308C77.0712 65.1346 76.5476 65.5787 75.6865 65.5802C73.8025 65.5832 71.9169 65.5802 70.0329 65.5802H70.0313Z" fill="#161616"/>
<path d="M70.0434 71.0177C68.1594 71.0177 66.2738 71.0192 64.3897 71.0177C63.5241 71.0177 63.0051 70.5767 63.0187 69.8698C63.0323 69.1932 63.5529 68.7552 64.3761 68.7552C68.1639 68.7522 71.9517 68.7522 75.741 68.7552C76.4825 68.7552 76.9637 69.1313 77.0484 69.743C77.1226 70.2716 76.7821 70.8168 76.2555 70.9633C76.0603 71.0177 75.8454 71.0162 75.6396 71.0162C73.7737 71.0192 71.9078 71.0177 70.0419 71.0177H70.0434Z" fill="#161616"/>
</g>
<defs>
<clipPath id="clip0_345_635">
<rect width="58" height="58" fill="white" transform="translate(24.5 24.5654)"/>
</clipPath>
</defs>
</svg>
