<svg width="107" height="107" viewBox="0 0 107 107" fill="none" xmlns="http://www.w3.org/2000/svg">
<g clip-path="url(#clip0_435_279)">
<g clip-path="url(#clip1_435_279)">
<path d="M62.0552 82.5654H44.9442C44.245 82.1395 44.0179 81.7075 44.1767 81.1139C44.3237 80.5702 44.769 80.3028 45.5394 80.3013C46.2727 80.3013 47.006 80.3013 47.7631 80.3013C48.1446 78.1867 48.5157 76.1386 48.9002 74.0059C48.5973 74.0059 48.3806 74.0059 48.1639 74.0059C43.7774 74.0059 39.3909 74.0089 35.0044 74.0014C34.4879 74.0014 33.9609 73.9878 33.4591 73.882C30.4665 73.2582 28.5071 70.7721 28.5041 67.6017C28.4967 59.7521 28.4997 51.9025 28.5026 44.0528C28.5026 40.1439 31.1137 37.4855 34.9495 37.4795C35.4616 37.4795 35.9723 37.4795 36.5215 37.4795C36.5215 37.1819 36.5215 36.9584 36.5215 36.7349C36.5215 33.8666 36.5141 30.9983 36.5245 28.13C36.5304 26.4066 37.4523 25.156 39.0302 24.6772C39.1148 24.6515 39.1935 24.6032 39.2751 24.5654C48.7577 24.5654 58.2387 24.5654 67.7212 24.5654C69.9449 25.4868 70.4763 26.3054 70.4763 28.8097C70.4763 31.4892 70.4763 34.1687 70.4763 36.8481C70.4763 37.046 70.4763 37.2454 70.4763 37.4795C71.0924 37.4795 71.6253 37.478 72.1597 37.4795C75.8559 37.4961 78.4908 40.1741 78.4937 43.9395C78.4997 51.8073 78.4982 59.6766 78.4893 67.5443C78.4893 68.0866 78.4447 68.6424 78.323 69.1695C77.6461 72.1149 75.2517 73.9923 72.1612 73.9999C67.7198 74.0119 63.2769 74.0029 58.8354 74.0029C58.6187 74.0029 58.402 74.0029 58.0977 74.0029C58.4866 76.1507 58.8607 78.2139 59.2377 80.2983C60.1091 80.2983 60.9226 80.2817 61.7345 80.3028C62.4589 80.3209 62.9072 80.8572 62.8479 81.5595C62.8048 82.0836 62.4471 82.3343 62.0537 82.5609L62.0552 82.5654ZM38.7779 32.7066V65.8028H68.2126V32.7066H38.7779ZM76.227 68.1757H30.7323C30.802 68.4808 30.8406 68.721 30.9119 68.9536C31.4433 70.6966 32.9025 71.7373 34.8456 71.7388C47.2851 71.7418 59.7246 71.7403 72.1641 71.7388C72.3304 71.7388 72.4966 71.7327 72.6629 71.7191C74.557 71.5772 75.9984 70.1619 76.227 68.1757ZM36.4785 65.8194V45.678H30.7545V65.8194H36.4785ZM76.2374 65.8149V45.6735H70.5075V65.8149H76.2374ZM38.76 30.3503H68.2126C68.2334 30.2582 68.2482 30.2204 68.2482 30.1842C68.2512 29.58 68.2556 28.9774 68.2541 28.3732C68.2527 27.1936 67.8905 26.8311 66.7163 26.8311C57.9077 26.8311 49.0991 26.8311 40.2905 26.8311C40.142 26.8311 39.9936 26.825 39.8466 26.8356C39.2544 26.8794 38.8075 27.254 38.7719 27.8566C38.7244 28.6783 38.76 29.506 38.76 30.3503ZM56.971 80.2756C56.6058 78.2547 56.2555 76.2912 55.8829 74.3321C55.8592 74.2053 55.6573 74.0225 55.537 74.021C54.0957 73.9999 52.6543 74.0074 51.1669 74.0074C50.7854 76.1084 50.4098 78.1747 50.0268 80.2772H56.9725L56.971 80.2756ZM36.48 43.352V39.7844C33.0613 39.4581 30.7887 40.8915 30.8035 43.352H36.48ZM70.5016 43.3475H76.2136C76.1276 41.7071 74.9281 40.1998 73.3279 39.8886C72.4165 39.7119 71.465 39.7527 70.5031 39.6938V43.3475H70.5016Z" fill="#1465FF"/>
<path d="M40.1453 51.7985C40.1453 48.8366 40.1439 45.8747 40.1453 42.9128C40.1468 41.0202 41.177 39.9674 43.0237 39.9644C44.615 39.9614 46.2063 39.9584 47.7976 39.9644C49.4364 39.972 50.5378 41.0368 50.5423 42.7104C50.5601 48.7853 50.5601 54.8602 50.5423 60.935C50.5378 62.6101 49.4483 63.6719 47.802 63.6825C46.1558 63.6931 44.5081 63.6961 42.8618 63.6825C41.2201 63.6689 40.1528 62.5829 40.1483 60.9109C40.1379 57.8734 40.1453 54.836 40.1453 51.7985ZM48.3305 51.8695C48.3305 48.9091 48.326 45.9472 48.3349 42.9868C48.3364 42.4974 48.2444 42.2089 47.664 42.2195C46.1113 42.2482 44.5556 42.2421 43.0029 42.2225C42.513 42.2165 42.3601 42.4173 42.3616 42.8961C42.3705 48.8562 42.372 54.8163 42.3616 60.7749C42.3616 61.2779 42.559 61.432 43.0237 61.4274C44.5214 61.4108 46.0207 61.4229 47.5185 61.4214C48.283 61.4214 48.329 61.3731 48.3305 60.5846C48.332 57.6801 48.3305 54.7756 48.3305 51.871V51.8695Z" fill="#161616"/>
<path d="M59.6032 39.9646C61.0832 39.9646 62.5647 39.9586 64.0446 39.9661C65.6478 39.9752 66.7374 41.0476 66.7582 42.6833C66.7834 44.588 66.7819 46.4941 66.7582 48.4003C66.7389 50.0134 65.6953 51.1085 64.1055 51.1251C61.0891 51.1583 58.0728 51.1598 55.0564 51.1251C53.425 51.1069 52.3934 49.9666 52.3889 48.293C52.3844 46.4624 52.3844 44.6333 52.3889 42.8027C52.3934 41.0748 53.4696 39.9722 55.1603 39.9646C56.6403 39.9586 58.1218 39.9646 59.6017 39.9646H59.6032ZM54.6111 45.319C55.0995 44.9127 55.4854 44.5699 55.8936 44.2557C56.8927 43.4839 58.1425 43.496 59.1252 44.2829C59.4741 44.5623 59.8333 44.8372 60.1406 45.1604C60.5429 45.5834 60.8709 45.5305 61.2658 45.1483C62.1327 44.3055 63.1347 44.15 64.2361 44.6227C64.3163 44.6575 64.4024 44.6756 64.5419 44.7194C64.5419 44.0201 64.5449 43.3615 64.5419 42.7045C64.5389 42.3405 64.3296 42.2257 63.9986 42.2272C61.058 42.2317 58.1173 42.2317 55.1767 42.2272C54.7759 42.2272 54.6066 42.4039 54.6126 42.8072C54.623 43.5987 54.6155 44.3901 54.6155 45.319H54.6111ZM59.5542 48.8715C60.9956 48.8715 62.4385 48.8851 63.8799 48.8579C64.0936 48.8534 64.4736 48.6752 64.484 48.5513C64.5196 48.1224 64.7735 47.6179 64.2673 47.2675C63.5261 46.7549 62.9244 46.6895 62.4622 47.0711C61.3281 48.0121 60.0515 48.0121 58.9248 47.0696C58.6101 46.8068 58.288 46.5515 57.9986 46.2615C57.6571 45.9202 57.3692 45.9051 57.001 46.2419C56.3553 46.8325 55.6621 47.3702 55.0119 47.9577C54.8427 48.1103 54.758 48.3625 54.6348 48.5679C54.8694 48.6691 55.1024 48.8549 55.3399 48.8594C56.7442 48.8866 58.15 48.873 59.5542 48.873V48.8715Z" fill="#161616"/>
<path d="M59.5735 63.6854C58.1114 63.6854 56.6492 63.6914 55.1885 63.6838C53.4532 63.6748 52.3934 62.5858 52.3889 60.8186C52.3859 58.9895 52.383 57.1588 52.3889 55.3297C52.3948 53.6652 53.4622 52.5415 55.0846 52.5339C58.0817 52.5173 61.0802 52.5173 64.0773 52.5339C65.6597 52.543 66.7329 53.6184 66.7552 55.227C66.7819 57.1513 66.7819 59.0756 66.7552 60.9998C66.7315 62.6069 65.6538 63.6687 64.0684 63.6838C62.5691 63.6989 61.0713 63.6869 59.5721 63.6884L59.5735 63.6854ZM63.053 61.4212C63.3529 61.4212 63.5741 61.4212 63.7953 61.4212C64.487 61.4152 64.5419 61.3623 64.5419 60.6343C64.5449 58.917 64.5315 57.1981 64.5494 55.4808C64.5553 54.9718 64.3742 54.7814 63.8665 54.7845C61.0149 54.8011 58.1633 54.8011 55.3132 54.7845C54.7848 54.7814 54.5918 54.9687 54.6007 55.511C54.6245 57.0773 54.6096 58.6436 54.6096 60.2114C54.6096 61.4922 54.6259 61.5073 55.8847 61.4137C55.9367 61.4092 55.9872 61.3835 56.094 61.3502C56.1371 60.157 55.9367 58.8958 56.8734 57.8914C57.8219 56.8734 59.0288 56.9429 60.2356 56.9746C60.9452 56.9927 61.5656 57.248 62.106 57.7252C63.2193 58.7115 63.0545 60.0558 63.053 61.4212ZM60.8279 61.4001C60.8279 60.8639 60.8427 60.3775 60.8234 59.8927C60.8056 59.4637 60.5384 59.1979 60.1391 59.2508C59.535 59.3323 58.6962 58.8384 58.3949 59.7326C58.2287 60.2265 58.3652 60.8276 58.3652 61.4001H60.8294H60.8279Z" fill="#161616"/>
<path d="M55.6665 37.8827C52.4275 37.8827 49.1885 37.8858 45.9495 37.8812C45.0989 37.8812 44.6224 37.4855 44.5971 36.7967C44.5764 36.2062 44.9489 35.7349 45.5234 35.6503C45.7416 35.6186 45.9658 35.6201 46.1884 35.6201C52.5195 35.6201 58.8491 35.6201 65.1802 35.6201C65.4014 35.6201 65.627 35.6201 65.8438 35.6534C66.3737 35.7364 66.7344 36.1624 66.7537 36.7016C66.7745 37.2725 66.4301 37.7362 65.8809 37.8389C65.6463 37.8827 65.4029 37.8812 65.1624 37.8812C61.9976 37.8842 58.8313 37.8827 55.6665 37.8812V37.8827Z" fill="#1465FF"/>
<path d="M40.1513 36.7486C40.1513 36.1203 40.6204 35.637 41.2349 35.6309C41.8435 35.6249 42.3423 36.1097 42.3601 36.7199C42.3779 37.3452 41.8569 37.8784 41.2349 37.8709C40.6278 37.8633 40.1513 37.3709 40.1513 36.7471V36.7486Z" fill="#1465FF"/>
<path d="M65.345 27.5012C65.6033 27.5012 65.8645 27.4816 66.1213 27.5058C66.6721 27.5556 67.0803 27.9891 67.1233 28.5389C67.1634 29.0585 66.8443 29.6068 66.3217 29.6717C65.6508 29.7533 64.9561 29.7578 64.2851 29.6762C63.7314 29.6083 63.4345 29.0721 63.485 28.4966C63.5325 27.9468 63.9392 27.5435 64.5122 27.5027C64.7883 27.4831 65.0674 27.4997 65.345 27.4997V27.5027V27.5012Z" fill="#1465FF"/>
<path d="M45.3126 49.3709C44.8881 49.3709 44.4635 49.389 44.0405 49.3663C43.4155 49.3316 42.9539 48.8362 42.9568 48.2365C42.9598 47.6369 43.4215 47.1355 44.0494 47.1173C44.9148 47.0932 45.7832 47.0917 46.6486 47.1173C47.2854 47.137 47.7263 47.6279 47.7233 48.2441C47.7204 48.8588 47.2765 49.3331 46.6397 49.3648C46.1988 49.3875 45.755 49.3694 45.3126 49.3694V49.3709Z" fill="#161616"/>
<path d="M45.3854 54.6999C45.7728 54.6999 46.1602 54.6908 46.5477 54.7014C47.2602 54.7226 47.7308 55.1863 47.7234 55.8448C47.7159 56.4792 47.2543 56.9444 46.5744 56.958C45.7446 56.9746 44.9148 56.9761 44.085 56.958C43.4259 56.9414 42.9465 56.4369 42.9554 55.8176C42.9643 55.1968 43.4452 54.7331 44.1132 54.7014C44.1503 54.6999 44.1874 54.7014 44.2246 54.7014C44.612 54.7014 44.9994 54.7014 45.3869 54.7014L45.3854 54.6999Z" fill="#161616"/>
<path d="M45.3794 43.3278C45.8055 43.3278 46.2315 43.3082 46.656 43.3324C47.2825 43.3686 47.707 43.8157 47.7233 44.4123C47.7397 45.012 47.3448 45.5164 46.7214 45.5497C45.8173 45.5965 44.9074 45.5965 44.0034 45.5557C43.3562 45.527 42.9272 44.9999 42.9568 44.3972C42.9851 43.8066 43.42 43.3792 44.0464 43.3278C44.0835 43.3248 44.1206 43.3233 44.1578 43.3233C44.5645 43.3233 44.9727 43.3233 45.3794 43.3233C45.3794 43.3248 45.3794 43.3263 45.3794 43.3278Z" fill="#161616"/>
<path d="M45.3126 53.1609C44.8866 53.1609 44.4591 53.188 44.036 53.1548C43.3799 53.102 42.945 52.6262 42.9554 52.0205C42.9643 51.4118 43.4155 50.9405 44.0687 50.9224C44.9193 50.8983 45.7728 50.8983 46.6234 50.9224C47.2795 50.9405 47.7189 51.4088 47.7248 52.0265C47.7308 52.6262 47.3285 53.0687 46.7006 53.1548C46.6457 53.1624 46.5907 53.1714 46.5343 53.1714C46.1276 53.1714 45.7194 53.1714 45.3126 53.1714C45.3126 53.1684 45.3126 53.1639 45.3126 53.1609Z" fill="#161616"/>
<path d="M45.3646 58.5059C45.7906 58.5059 46.2167 58.4878 46.6412 58.5104C47.2706 58.5452 47.6996 58.9817 47.7219 59.5768C47.7471 60.1976 47.3359 60.7035 46.6798 60.7353C45.7936 60.7776 44.9029 60.7776 44.0167 60.7368C43.3651 60.7066 42.9346 60.1945 42.9554 59.5904C42.9762 58.9817 43.4259 58.5376 44.0865 58.5089C44.5111 58.4893 44.9386 58.5059 45.3631 58.5074L45.3646 58.5059Z" fill="#161616"/>
</g>
</g>
<defs>
<clipPath id="clip0_435_279">
<rect width="58" height="58" fill="white" transform="translate(24.5 24.5654)"/>
</clipPath>
<clipPath id="clip1_435_279">
<rect width="50" height="58" fill="white" transform="translate(28.5 24.5654)"/>
</clipPath>
</defs>
</svg>
