<svg width="107" height="107" viewBox="0 0 107 107" fill="none" xmlns="http://www.w3.org/2000/svg">
<g clip-path="url(#clip0_477_292)">
<g clip-path="url(#clip1_477_292)">
<path d="M63.5729 73.7338C63.2723 73.551 63.0105 73.3058 62.8023 73.0087C62.7062 72.8717 62.625 72.7268 62.5577 72.5771H28.4063V38.9155H74.7619V60.8954C75.7516 60.9847 76.5819 61.6347 76.9305 62.5247C77.2392 62.3555 77.5833 62.251 77.9449 62.2191C78.1895 62.1978 78.4324 62.213 78.6681 62.2595V30.5297C78.6681 28.7347 77.208 27.2744 75.4132 27.2744H27.7552C25.9603 27.2744 24.5 28.7347 24.5 30.5297V73.2283C24.5 75.0233 25.9603 76.4835 27.7552 76.4835H63.2762C62.999 75.9222 62.9332 75.2885 63.0964 74.6788C63.1904 74.3281 63.3531 74.0083 63.5729 73.7338ZM71.1873 32.7407C71.1873 32.0769 71.7254 31.5387 72.3892 31.5387H73.5911C74.255 31.5387 74.793 32.0768 74.793 32.7407V34.103C74.793 34.7668 74.2549 35.3049 73.5911 35.3049H72.3892C71.7253 35.3049 71.1873 34.7668 71.1873 34.103V32.7407ZM65.5984 32.7407C65.5984 32.0769 66.1365 31.5387 66.8003 31.5387H68.0023C68.6662 31.5387 69.2042 32.0768 69.2042 32.7407V34.103C69.2042 34.7668 68.6661 35.3049 68.0023 35.3049H66.8003C66.1365 35.3049 65.5984 34.7668 65.5984 34.103V32.7407ZM60.0093 32.7407C60.0093 32.0769 60.5475 31.5387 61.2112 31.5387H62.4131C63.077 31.5387 63.6151 32.0768 63.6151 32.7407V34.103C63.6151 34.7668 63.077 35.3049 62.4131 35.3049H61.2112C60.5475 35.3049 60.0093 34.7668 60.0093 34.103V32.7407Z" fill="#1465FF"/>
<path d="M82.4923 71.4416L82.1311 69.3933C82.0823 69.1175 81.8195 68.9332 81.5434 68.9819L79.7219 69.3028C79.5033 68.7897 79.224 68.3091 78.8925 67.8692L80.0823 66.451C80.1687 66.3482 80.2108 66.2149 80.1992 66.0808C80.1874 65.9467 80.1227 65.823 80.0197 65.7364L78.4266 64.3994C78.3236 64.3129 78.19 64.2709 78.0561 64.2827C77.922 64.2944 77.7982 64.3589 77.7117 64.4619L76.5231 65.879C76.0351 65.6304 75.5132 65.4387 74.9664 65.3122V63.4625C74.9664 63.1824 74.7392 62.9551 74.4591 62.9551H72.379C72.099 62.9551 71.8717 63.1824 71.8717 63.4625V65.3122C71.3246 65.4386 70.8032 65.6304 70.315 65.879L69.1261 64.4621C68.9459 64.2474 68.6261 64.2195 68.4113 64.3995L66.8181 65.7364C66.7151 65.823 66.6506 65.9467 66.6387 66.0808C66.6271 66.2149 66.6691 66.3484 66.7555 66.4514L67.9454 67.8693C67.6145 68.3091 67.3347 68.79 67.116 69.303L65.2945 68.9819C65.0191 68.9334 64.7557 69.1175 64.7068 69.3933L64.3458 71.4416C64.3224 71.5741 64.3527 71.7102 64.4296 71.8206C64.5071 71.931 64.6244 72.0059 64.757 72.0293L66.5798 72.3506C66.6095 72.9153 66.7079 73.4617 66.8662 73.982L65.264 74.9067C65.1474 74.9737 65.0625 75.0847 65.0275 75.2146C64.9927 75.3445 65.0111 75.4829 65.0782 75.5995L66.1181 77.4007C66.1851 77.5173 66.2962 77.6022 66.426 77.637C66.4692 77.6486 66.5133 77.6543 66.5573 77.6543C66.6456 77.6543 66.733 77.6314 66.8109 77.5863L68.4143 76.6605C68.7914 77.0645 69.2171 77.4225 69.6822 77.7253L69.0491 79.4646C69.0033 79.5911 69.0092 79.7306 69.0661 79.8526C69.123 79.9745 69.2259 80.0689 69.3523 80.1147L71.3064 80.8259C71.3625 80.8463 71.4213 80.8568 71.48 80.8568C71.5532 80.8568 71.6268 80.8409 71.6946 80.8092C71.8166 80.7524 71.9106 80.6494 71.9566 80.5228L72.5896 78.7835C72.861 78.8164 73.1373 78.8334 73.4175 78.8334C73.6978 78.8334 73.974 78.8161 74.2454 78.7835L74.8785 80.5228C74.9244 80.6494 75.0189 80.7524 75.1405 80.8092C75.2082 80.8408 75.2815 80.8568 75.3552 80.8568C75.4137 80.8568 75.4726 80.8466 75.5286 80.8259L77.483 80.1147C77.6091 80.0689 77.7121 79.9742 77.7689 79.8526C77.8258 79.7306 77.8319 79.5911 77.7859 79.4646L77.1528 77.7255C77.6175 77.4228 78.0432 77.0645 78.4207 76.6608L80.0241 77.5866C80.1019 77.6314 80.1894 77.6546 80.2777 77.6546C80.3216 77.6546 80.3661 77.6486 80.409 77.6373C80.539 77.6025 80.6498 77.5173 80.7169 77.401L81.7568 75.5995C81.8239 75.4832 81.8423 75.3445 81.8075 75.2146C81.7725 75.085 81.6876 74.974 81.571 74.9067L79.9691 73.9823C80.1274 73.4618 80.2255 72.9155 80.2552 72.3508L82.0781 72.0294C82.2107 72.0061 82.3283 71.9311 82.4054 71.8207C82.4854 71.7102 82.5156 71.5741 82.4923 71.4416ZM73.4192 74.6965C71.8785 74.6965 70.6292 73.4472 70.6292 71.9064C70.6292 70.3655 71.8786 69.1164 73.4192 69.1164C74.96 69.1164 76.2093 70.3655 76.2093 71.9064C76.2093 73.4472 74.96 74.6965 73.4192 74.6965Z" fill="#1465FF"/>
<path d="M47.2473 57.5747C47.2473 56.9184 46.8627 56.3155 46.2673 56.039L40.8178 53.507L46.2674 50.9747C46.8627 50.6979 47.2473 50.0952 47.2473 49.4391V49.3951C47.2473 48.8136 46.9547 48.2798 46.4649 47.9678C46.1939 47.7947 45.8783 47.7031 45.5525 47.7031C45.3069 47.7031 45.0604 47.7571 44.8398 47.8596L36.1276 51.911C35.5325 52.1878 35.1481 52.7906 35.1481 53.4465V53.5676C35.1481 54.2227 35.5323 54.825 36.1277 55.1032L44.8408 59.155C45.066 59.2593 45.306 59.3122 45.5537 59.3122C45.8767 59.3122 46.1913 59.2205 46.4649 59.0465C46.9549 58.7332 47.2475 58.1998 47.2475 57.619L47.2473 57.5747Z" fill="#1465FF"/>
<path d="M55.8434 43.5746C55.5256 43.1395 55.0144 42.8799 54.4759 42.8799H54.4325C53.693 42.8799 53.0447 43.3529 52.8194 44.0561L47.0792 61.8418C46.9159 62.3553 47.0078 62.9209 47.3252 63.3559C47.643 63.7907 48.1542 64.0505 48.6927 64.0505H48.7362C49.4755 64.0505 50.1234 63.5773 50.3484 62.8742L56.0879 45.0899C56.2528 44.5768 56.1613 44.0104 55.8434 43.5746Z" fill="#1465FF"/>
<path d="M67.0405 51.9108L58.3281 47.8593C58.1082 47.7571 57.8621 47.7031 57.6165 47.7031C57.2909 47.7031 56.9751 47.7944 56.7043 47.9672C56.2137 48.2798 55.921 48.8135 55.921 49.3949V49.439C55.921 50.0945 56.3054 50.6974 56.9012 50.9753L62.3505 53.507L56.9011 56.0388C56.3057 56.3153 55.921 56.9182 55.921 57.5746V57.6189C55.921 58.1997 56.2137 58.7329 56.704 59.0465C56.9766 59.2202 57.2915 59.3121 57.6149 59.3121C57.8624 59.3121 58.102 59.2592 58.3288 59.1545L67.0416 55.1027C67.6364 54.8252 68.0205 54.2227 68.0205 53.5676V53.4465C68.0201 52.7904 67.6358 52.1877 67.0405 51.9108Z" fill="#1465FF"/>
</g>
</g>
<defs>
<clipPath id="clip0_477_292">
<rect width="58" height="58" fill="white" transform="translate(24.5 24.5654)"/>
</clipPath>
<clipPath id="clip1_477_292">
<rect width="58" height="58" fill="white" transform="translate(24.5 25.0654)"/>
</clipPath>
</defs>
</svg>
