<svg width="47" height="47" viewBox="0 0 47 47" fill="none" xmlns="http://www.w3.org/2000/svg">
<rect width="47" height="47" rx="23.5" fill="white"/>
<path d="M35.2955 19.7892C35.148 18.4287 34.8308 16.9247 33.6633 16.1344C32.7591 15.5214 31.5705 15.4988 30.4609 15.5C28.1154 15.5 25.7685 15.5038 23.423 15.5051C21.1669 15.5076 18.9109 15.5089 16.6549 15.5114C15.7124 15.5114 14.7963 15.4422 13.921 15.8323C13.1694 16.1671 12.5811 16.8039 12.227 17.5125C11.7361 18.4979 11.6334 19.6142 11.5742 20.7041C11.4649 22.6888 11.4768 24.6786 11.6071 26.6621C11.7032 28.1094 11.9467 29.709 13.1168 30.6315C14.154 31.4483 15.6176 31.4886 16.9628 31.4898C21.2327 31.4936 25.5039 31.4974 29.7752 31.4999C30.3227 31.5012 30.894 31.4911 31.452 31.4332C32.5498 31.3199 33.5962 31.0191 34.3017 30.2414C35.0138 29.4573 35.1967 28.3661 35.3047 27.3329C35.5679 24.8258 35.5653 22.2949 35.2955 19.7892ZM20.9537 27.0145V19.9855L27.3191 23.4993L20.9537 27.0145Z" fill="#272727"/>
</svg>
